<svg xmlns="http://www.w3.org/2000/svg" viewBox="0 0 512 512" role="img" aria-label="Astan Quds Razavi logo">
  <defs>
    <linearGradient id="archGradient" x1="0" y1="0" x2="0" y2="1">
      <stop offset="0%" stop-color="#ffffff" stop-opacity="0.95" />
      <stop offset="100%" stop-color="#f8f8f8" />
    </linearGradient>
  </defs>
  <rect width="512" height="512" fill="#0e3a22" rx="32" />
  <g transform="translate(256 240)">
    <g id="rays" stroke="#f4f4f4" stroke-width="8">
      <g id="ray-group">
        <line y1="-184" y2="-144" />
        <line transform="rotate(12)" y1="-184" y2="-144" />
        <line transform="rotate(24)" y1="-184" y2="-144" />
        <line transform="rotate(36)" y1="-184" y2="-144" />
        <line transform="rotate(48)" y1="-184" y2="-144" />
      </g>
      <use href="#ray-group" transform="rotate(60)" />
      <use href="#ray-group" transform="rotate(120)" />
      <use href="#ray-group" transform="rotate(180)" />
      <use href="#ray-group" transform="rotate(240)" />
      <use href="#ray-group" transform="rotate(300)" />
    </g>
  </g>
  <g transform="translate(256 256)">
    <path
      d="M-86 90c0-58 0-128 82-160 80 32 82 102 82 160v50h-44v-53c0-36-6-69-38-94-32 25-38 58-38 94v53h-44z"
      fill="url(#archGradient)"
    />
    <rect x="-12" y="-60" width="24" height="170" fill="#0e3a22" />
    <rect x="-6" y="-160" width="12" height="60" fill="#f4f4f4" />
  </g>
  <path
    d="M256 296c-24 0-44 20-44 44s20 44 44 44 44-20 44-44-20-44-44-44zm0 24c11 0 20 9 20 20s-9 20-20 20-20-9-20-20 9-20 20-20z"
    fill="#f8f8f8"
  />
  <g fill="#fdfdfd" font-family="'Noto Naskh Arabic', 'Amiri', 'Scheherazade', serif" font-size="44" text-anchor="middle">
    <text x="256" y="440" dominant-baseline="middle">آستان قدس رضوی</text>
  </g>
</svg>
